PathFileType	4	(X/Y/Z)	C:/Users/beibeiliu/ov580/test_trc/User2\sequence.39.1_training_dense_right.trc
DataRate	CameraRate	NumFrames	NumMarkers	Units	OrigDataRate	OrigDataStartFrame	OrigNumFrames
120	120	20	19	mm	120	30	89
Frame#	Time	ThumbCMC			ThumbMCP			ThumbIP			ThumbTip			IndexMCP			IndexPIP			IndexTip			MiddleMCP			MiddlePIP			MiddleTip			RingMCP			RingPIP			RingTip			PinkyMCP			PinkyPIP			PinkyTip			BackHand1			BackHand2			BackHand3	
		X0	Y0	Z0	X1	Y1	Z1	X2	Y2	Z2	X3	Y3	Z3	X4	Y4	Z4	X5	Y5	Z5	X6	Y6	Z6	X7	Y7	Z7	X8	Y8	Z8	X9	Y9	Z9	X10	Y10	Z10	X11	Y11	Z11	X12	Y12	Z12	X13	Y13	Z13	X14	Y14	Z14	X15	Y15	Z15	X16	Y16	Z16	X17	Y17	Z17	X18	Y18	Z18	
29	0.241667	91.4479	54.9904	16.9386	67.242	71.3143	0.124974	43.104	78.8527	-28.2374	28.6892	71.077	-50.2144	82.3934	40.8475	-71.9104	63.3821	37.76	-90.672	34.2806	26.6482	-98.2583	94.3711	19.957	-80.1027	69.9239	12.7345	-104.471	34.4733	6.59048	-114.238	91.8647	-6.8845	-71.044	64.9686	-12.9195	-90.4583	31.5405	-15.1733	-88.5828	89.1035	-29.1089	-53.1066	59.0881	-37.6843	-66.593	32.4477	-36.9071	-63.8732	123.23	1.84925	-20.3414	137.202	1.03975	12.8639	120.342	38.9856	-0.709044	
30	0.25	90.71	56.0705	15.7411	67.5594	71.0549	-1.37261	44.8692	75.8881	-25.3818	29.4883	70.9738	-45.4797	83.9868	44.9394	-68.3893	62.4678	33.5417	-89.5745	33.0493	23.5064	-90.1805	88.894	18.8414	-76.954	57.6746	9.87614	-96.3227	23.2666	0.518484	-84.5254	85.4608	-7.27579	-71.1898	55.328	-11.2881	-81.2244	24.3807	-15.1511	-59.9523	84.5968	-26.4156	-53.0188	52.7376	-29.1317	-59.3694	29.022	-24.194	-45.3628	122.786	0.228061	-18.9562	134.564	1.96462	11.2406	121.541	37.2983	-0.605802	
31	0.258333	91.7	54.5136	16.9143	67.4237	69.9915	-3.99519	46.1838	76.0613	-26.9204	28.558	73.2435	-49.0857	84.4451	39.4544	-66.2519	55.8107	31.5766	-85.5477	27.4298	19.8198	-69.4728	81.7728	16.484	-76.3599	47.329	6.27634	-83.2583	19.7166	4.38813	-51.8998	77.2878	-6.24051	-68.8722	46.041	-12.3991	-68.1606	29.2695	-6.0114	-39.6005	80.6555	-27.5066	-51.4914	48.3475	-25.5545	-50.7958	33.8972	-13.038	-25.4588	121.023	1.39113	-20.3734	136.399	3.50425	12.3639	121.828	33.3283	-2.12347	
32	0.266667	92.9312	57.2154	18.7819	68.6122	71.9617	-5.15317	47.2837	80.2541	-30.7415	31.1523	74.3192	-51.7379	80.4016	39.8476	-66.0168	44.9368	32.8637	-75.9775	28.6187	26.6082	-49.3743	76.9612	17.1019	-70.2513	38.3477	10.5296	-68.5127	29.7841	7.04373	-29.069	72.6014	-6.13497	-64.4529	41.2587	-8.1802	-57.1769	40.4181	-2.36149	-19.7534	77.0166	-24.0291	-49.8083	43.7831	-24.3578	-39.9742	46.805	-7.21224	-9.55172	122.585	-1.74795	-20.9146	134.075	-2.41297	9.73744	121.655	32.9846	-5.99245	
33	0.275	92.4223	55.8505	16.0344	68.9546	72.3524	-1.66817	46.3	78.3449	-28.6429	30.8052	73.0627	-54.2303	72.6521	42.339	-68.0036	42.1889	32.7397	-67.5344	36.3358	27.2726	-32.65	74.103	14.0843	-66.6891	37.0312	10.2692	-57.7238	38.8286	14.0546	-18.5436	65.5856	-6.80839	-61.4356	39.9386	-7.45026	-45.2855	50.6596	-0.487322	-12.7053	71.3441	-22.6706	-49.2586	43.8955	-18.8861	-31.1644	57.1693	-6.01371	0.333001	123.545	0.298937	-22.9312	133.724	1.00119	7.28159	121.553	37.1187	-2.48845	
34	0.283333	91.1026	55.0128	13.1955	64.828	71.3066	-5.49977	44.1092	69.8661	-28.3033	27.4738	62.196	-54.6216	72.4899	38.9226	-64.0114	38.3566	34.1727	-56.7796	42.6395	31.233	-23.8092	68.2036	20.1045	-66.4915	38.1729	12.6143	-50.8724	50.4913	17.9405	-10.6079	65.704	-2.32938	-57.8094	42.4597	-4.85981	-39.2683	61.7485	7.91321	-6.86585	70.1522	-19.7536	-46.2196	47.4541	-15.5385	-22.8608	65.3685	-2.49666	0.96935	122.018	-0.916119	-21.6238	133.665	1.16736	10.6417	121.482	36.7878	-5.58097	
35	0.291667	91.336	54.5283	16.0772	61.7797	68.3873	-7.67911	38.3417	65.9874	-31.6153	29.3709	47.3945	-51.5316	67.9514	43.9834	-64.8895	42.0573	32.3334	-55.1436	46.9836	34.1755	-19.8003	66.3776	18.6173	-65.5484	37.6713	13.072	-44.9309	54.2899	16.6797	-8.04844	65.9543	-4.25229	-55.2267	42.4317	0.586676	-31.8882	67.5272	7.03517	-3.91967	66.6768	-17.3401	-44.852	49.3276	-12.3745	-21.5977	70.7307	-2.2903	2.723	123.219	3.66403	-23.5666	135.053	1.05335	11.9474	123.849	34.7371	-5.33015	
36	0.3	91.5109	55.644	11.2741	63.3825	66.9674	-5.56179	39.6899	61.8809	-37.5941	30.3854	43.7603	-54.3008	70.5556	40.5562	-64.6168	40.7074	35.8234	-53.5008	52.552	32.3085	-20.334	66.6156	22.0655	-64.5852	39.2871	14.6285	-44.7376	56.0498	23.0968	-6.6453	65.2696	-1.61197	-54.3276	44.0537	0.889775	-28.7529	69.7583	9.90379	-5.29354	69.4535	-19.7041	-43.1372	49.619	-10.7633	-13.2339	69.8813	-0.376268	3.70471	120.939	2.05343	-23.3728	133.882	2.39801	6.50786	124.669	34.9584	-3.01527	
37	0.308333	93.0942	54.0751	14.5025	65.1948	69.8937	-7.0026	42.2581	64.2137	-39.9699	33.2896	45.2472	-57.4054	73.3461	41.512	-63.7958	43.9837	33.4828	-55.5668	54.3384	38.7223	-19.8047	68.5144	19.5814	-65.3174	40.4086	13.0622	-43.8775	59.9849	20.3188	-8.03164	65.728	-1.9534	-55.206	44.9893	1.97906	-28.0148	69.4199	11.7841	-6.28773	67.1066	-19.6732	-42.531	51.1268	-9.86963	-13.4036	76.3603	1.05374	3.59596	123.546	0.124306	-23.3756	135.328	-2.05604	5.83321	124.208	34.878	-8.5865	
38	0.316667	95.8344	55.9554	14.5647	70.8218	71.4136	-8.64681	49.5766	68.0053	-41.3454	37.3591	53.3073	-58.218	72.1338	40.8684	-66.3	44.059	36.5831	-54.5155	58.955	39.4456	-21.4625	71.4201	17.3451	-64.955	41.4601	17.1795	-45.3322	61.0587	25.1381	-8.72842	63.3526	0.651941	-54.5507	44.9841	0.321184	-31.3806	71.1752	12.7541	-6.94507	70.2736	-18.0661	-43.4329	51.4109	-12.1006	-17.2587	74.584	-0.0209955	1.82189	122.444	0.453448	-22.9777	134.783	1.1654	6.45577	127.079	34.3806	-7.9002	
39	0.325	97.6764	59.732	14.6451	77.7196	71.6394	-14.034	59.9504	68.6729	-43.1688	46.2056	58.8033	-61.2204	78.7998	43.8149	-64.0954	45.6943	38.6207	-57.6592	58.1045	42.2689	-22.0583	70.6748	21.5027	-65.9475	42.6316	16.767	-41.9562	65.7732	23.5971	-9.37561	64.0017	-2.28675	-54.4152	46.6471	3.14652	-30.2112	74.751	12.8841	-7.48507	70.5678	-14.7123	-44.2054	52.2156	-9.23643	-15.7942	78.6503	-0.485648	2.8417	123.878	-2.56545	-23.7861	135.377	-2.86735	10.4069	128.031	35.6666	-7.17064	
40	0.333333	101.546	58.9648	11.5362	84.4429	72.7203	-12.6617	67.9489	74.1244	-44.4067	57.738	61.795	-65.9685	80.4916	43.6307	-65.8739	49.3599	35.4973	-57.1899	63.4478	40.0091	-20.9872	75.0043	17.2316	-64.9874	45.7889	18.073	-45.6508	67.1041	24.7186	-9.68004	70.5128	-3.61726	-54.17	48.5266	2.88192	-31.4097	73.797	9.88571	-6.45304	71.1427	-19.536	-43.8091	53.3575	-10.5624	-15.5419	77.8472	-2.76896	4.08202	124.893	-0.339081	-23.6632	137.901	-2.10839	9.7309	128.192	31.6828	-5.4869	
41	0.341667	102.391	57.3696	12.789	86.5536	75.7562	-10.8311	72.7978	72.8235	-45.4728	60.9949	62.6504	-69.3846	80.4074	45.3063	-65.9092	49.4032	36.5206	-55.945	59.532	40.4023	-22.196	73.2869	20.0416	-65.4739	46.8911	15.1324	-42.7597	70.224	22.6646	-8.79929	68.6777	-2.61507	-54.5629	49.194	2.96053	-33.5741	78.0426	10.045	-6.57795	75.2469	-19.7208	-43.8786	55.9039	-6.85919	-15.9336	77.3675	-3.03091	3.89631	128.429	-0.668503	-21.6957	136.087	-0.902223	8.33655	129.247	36.4432	-3.95853	
42	0.35	99.7777	57.5039	13.1839	81.7023	74.1101	-8.3474	66.1628	74.4871	-43.9479	56.0185	62.7368	-68.1984	76.8472	41.7333	-65.1097	49.96	34.0568	-56.7971	57.7174	37.0839	-21.7812	74.0969	18.0474	-64.9626	47.2627	12.8229	-45.8586	65.5198	22.0965	-8.32569	72.6081	1.59688	-54.8615	50.7264	1.20482	-32.0601	72.7464	12.7283	-7.25177	77.6171	-19.47	-44.7668	55.5268	-12.923	-19.5597	78.0392	-1.83552	4.56605	129.737	3.92613	-21.3705	138.661	2.1559	8.27637	127.306	39.6537	-6.10763	
43	0.358333	92.4485	62.0074	18.6719	71.2007	72.3643	-2.86575	53.4444	72.028	-33.927	45.0026	59.5751	-56.1715	79.3755	47.1507	-60.6784	45.2124	36.2291	-53.9922	51.5132	36.8513	-20.9273	79.6014	25.9449	-62.9848	46.5529	16.9737	-48.0461	58.9393	21.0278	-10.9777	77.7954	4.57914	-57.8393	52.7089	1.12606	-34.6278	72.6059	7.67431	-7.48229	81.7499	-15.4341	-48.7228	58.9269	-11.1392	-24.6803	76.3799	-2.79634	1.28325	130.934	13.2194	-19.6316	141.335	11.3784	9.66699	125.995	42.9131	0.727268	
44	0.366667	84.8698	59.5455	21.9493	58.8902	69.3542	6.80915	39.5374	66.7661	-23.4603	33.2996	53.9029	-48.4937	73.1934	57.9998	-59.5554	46.4212	42.1376	-58.0171	50.7632	31.9531	-21.7059	78.9353	37.1117	-63.9415	50.8377	17.0943	-53.7565	57.3453	18.8893	-14.3117	80.496	12.9253	-61.3142	56.1861	3.26433	-43.3867	70.5226	8.04856	-12.4825	90.9557	-1.49318	-51.4179	64.2138	-10.6151	-33.3073	74.2441	0.371461	-6.55522	132.834	26.6475	-20.4049	141.618	20.7161	16.3998	120.92	54.3912	7.85503	
45	0.375	76.6091	57.5231	30.9162	46.4385	62.7424	13.5268	25.1816	61.6018	-15.3842	22.5168	50.2751	-43.594	75.4745	70.446	-49.3884	47.7606	52.4567	-59.8821	45.4376	32.9615	-27.4515	82.3116	55.1688	-61.1833	55.5322	32.2524	-65.2625	55.8083	16.3404	-26.0267	92.0484	33.8546	-61.4189	64.98	13.3887	-58.6066	67.2049	8.75392	-23.518	102.931	12.5963	-58.5864	75.4833	0.769486	-53.0488	72.5645	-5.73495	-19.2987	130.372	42.2556	-10.1671	144.54	32.1649	21.5652	112.448	65.4267	15.3263	
46	0.383333	67.0794	53.3903	39.2594	40.2686	52.2526	21.7492	15.7889	51.2549	-8.68921	14.5708	43.6509	-31.7124	66.5137	82.0987	-39.1243	50.3551	63.4037	-61.5307	44.5483	31.3124	-40.6216	83.5712	70.7164	-54.4196	59.9434	47.5354	-71.7808	54.5823	18.312	-45.4701	98.0733	54.9492	-58.1483	74.6905	33.5103	-71.7141	66.6961	13.0155	-43.3362	115.242	32.967	-58.7394	87.4385	12.9155	-66.8009	73.6937	3.13746	-42.7465	129.608	52.2081	-6.92019	140.831	45.0076	24.4069	107.353	67.3528	23.7616	
47	0.391667	67.8016	43.6959	44.0772	33.9992	41.5719	27.5841	10.5553	39.1545	1.77305	9.05507	34.9523	-26.6352	59.7551	83.3437	-29.9596	48.0058	71.1357	-61.5008	36.8787	38.661	-60.5718	82.5768	79.6932	-49.8135	61.4866	61.9202	-76.9534	49.6025	25.3766	-69.4301	102.469	67.3538	-51.5135	85.2022	52.08	-79.7441	68.5844	24.5424	-71.0905	121.77	45.913	-51.2772	101.849	35.2255	-74.1801	80.7592	14.0605	-71.088	127.785	57.8557	2.92266	136.205	49.3865	34.6265	100.731	65.3548	33.2239	
48	0.4	62.3318	33.9111	44.5879	32.3766	26.8264	30.6217	7.84282	22.9509	2.88368	-0.54079	16.9327	-18.3676	53.1324	77.035	-33.6353	37.607	72.9154	-56.8397	33.4534	46.7471	-77.7946	79.2544	79.4732	-46.2809	61.8145	74.4897	-77.165	49.1127	43.9678	-97.0951	101.203	70.4059	-48.0257	93.6277	67.4256	-78.0478	76.0461	38.3719	-98.5529	126.919	46.554	-45.8408	121.698	40.9904	-78.0557	101.668	26.8125	-93.4794	123.531	54.9453	6.37347	133.674	50.1892	33.5516	94.3237	60.5265	33.0386	
